<svg id="Layer_1" data-name="Layer 1" xmlns="http://www.w3.org/2000/svg" viewBox="0 0 1000 165.29"><defs><style>.cls-1{fill:#2c2e7d;}.cls-2{fill:#505150;}</style></defs><title>logo-2</title><path class="cls-1" d="M64.31,20.41v9.75h-43V73.74H64.31v9.67h-43v53.33H11.51V20.41Z"/><path class="cls-1" d="M91.62,41.78A7.61,7.61,0,0,1,94,47.42a7.71,7.71,0,0,1-2.38,5.72,8.05,8.05,0,0,1-11.35,0,7.71,7.71,0,0,1-2.38-5.72,7.61,7.61,0,0,1,2.38-5.64,8.05,8.05,0,0,1,11.35,0Zm-.84,22.29v72.67H81V64.07Z"/><path class="cls-1" d="M124.85,81.57v55.17H115.1V64.07h9.75v2.08q6.28-6.3,18.49-6.3,13,0,21.14,8.21t8.41,20.57v48.11h-9.67V89.24a18.69,18.69,0,0,0-5.91-13.89,19.92,19.92,0,0,0-27.93-.07A20.61,20.61,0,0,0,124.85,81.57Z"/><path class="cls-1" d="M274,136.74H264.2V126.08q-13,12.66-29.77,12.66A40.49,40.49,0,0,1,194,98.3a40.49,40.49,0,0,1,40.44-40.52q16.8,0,29.77,12.66v-50H274Zm-9.75-32.38V92.16a28.78,28.78,0,0,0-8.28-15.35A30.39,30.39,0,0,0,204,98.3a29,29,0,0,0,8.9,21.41,30.4,30.4,0,0,0,51.26-15.35Z"/><path class="cls-1" d="M308.79,41.78a7.65,7.65,0,0,1,2.38,5.64,7.75,7.75,0,0,1-2.38,5.72,8.06,8.06,0,0,1-11.36,0,7.71,7.71,0,0,1-2.38-5.72,7.61,7.61,0,0,1,2.38-5.64,8.06,8.06,0,0,1,11.36,0Zm-.85,22.29v72.67H298.2V64.07Z"/><path class="cls-1" d="M342,81.57v55.17h-9.74V64.07H342v2.08q6.3-6.3,18.5-6.3,13,0,21.14,8.21t8.4,20.57v48.11h-9.67V89.24a18.69,18.69,0,0,0-5.91-13.89,19.92,19.92,0,0,0-27.93-.07A20.61,20.61,0,0,0,342,81.57Z"/><path class="cls-1" d="M480.83,126.69l-.54.15A40.48,40.48,0,0,1,411.15,98.3a40.42,40.42,0,0,1,40.44-40.44q16.82,0,29.78,12.58V64.07h9.74v55.56a38,38,0,0,1-11.58,27.86,40.6,40.6,0,0,1-57.25,0,66,66,0,0,1-5.6-6.91l9.9-3.53c1.17,1.38,2.15,2.46,2.91,3.22a30.27,30.27,0,0,0,42.9,0Q480.45,132.22,480.83,126.69Zm.46-34.91a28.82,28.82,0,0,0-8.21-15A30.39,30.39,0,0,0,421.21,98.3a30.42,30.42,0,0,0,60.08,6.6Z"/><path class="cls-1" d="M514.44,64.07h9.75v-.69q3.52-3.45,12.51-3.45a21.48,21.48,0,0,1,15.73,6.52L554,68.06l1.69-1.61a22.26,22.26,0,0,1,38,15v55.25H584V79.88c-.1-2.09-1.3-4.27-3.6-6.52a12.57,12.57,0,0,0-17.77,0,12.43,12.43,0,0,0-3.72,9.21v54.17H549.2V79.88h-.07c-.11-2.09-1.28-4.27-3.53-6.52a12.29,12.29,0,0,0-8.9-3.68,11.86,11.86,0,0,0-8.83,3.68A11.61,11.61,0,0,0,524.19,81v55.71h-9.75Z"/><path class="cls-1" d="M633.69,122q7.21,6.52,18.88,6.52a29.39,29.39,0,0,0,21.48-8.82q1.16-1.15,2.92-3.3l9.9,3.53a55.84,55.84,0,0,1-5.6,6.9,40.48,40.48,0,0,1-69.14-28.62,40.62,40.62,0,0,1,65.61-31.84q1.75,1.45,3.53,3.22c.41.46,1.17,1.3,2.3,2.53L677.66,78Zm35.53-49.26q-6.3-4.84-16.65-4.84a30.32,30.32,0,0,0-30.31,30.31q0,10.36,4.83,16.65Z"/><path class="cls-2" d="M706.62,129.12a4.78,4.78,0,0,1,0,6.82,4.84,4.84,0,0,1-6.81,0,4.78,4.78,0,0,1,0-6.82,4.84,4.84,0,0,1,6.81,0Z"/><path class="cls-2" d="M755.7,124.54l5.94,2.12a33.62,33.62,0,0,1-3.36,4.14,24.28,24.28,0,0,1-41.48-17.17,24.32,24.32,0,0,1,41.48-17.17,41.11,41.11,0,0,1,3.36,4.1l-5.94,2.21c-.7-.86-1.29-1.54-1.75-2a18.21,18.21,0,1,0-25.74,25.76,18.25,18.25,0,0,0,25.74,0C754.41,126.06,755,125.4,755.7,124.54Z"/><path class="cls-2" d="M794.19,89.37a24.24,24.24,0,0,1,24.27,24.31A24.27,24.27,0,1,1,777,96.48,23.38,23.38,0,0,1,794.19,89.37ZM781.3,100.79a18.2,18.2,0,1,0,12.89-5.35A17.55,17.55,0,0,0,781.3,100.79Z"/><path class="cls-2" d="M829.51,93.14h5.84v-.41q2.13-2.07,7.51-2.07a12.87,12.87,0,0,1,9.44,3.91l1,1,1-1a13.36,13.36,0,0,1,22.79,9v33.15h-5.85V102.63a6.13,6.13,0,0,0-2.16-3.92,7.53,7.53,0,0,0-10.66,0,7.47,7.47,0,0,0-2.23,5.53v32.5h-5.81V102.63h0a6.19,6.19,0,0,0-2.12-3.92,7.37,7.37,0,0,0-5.34-2.21,7.16,7.16,0,0,0-5.3,2.21,7,7,0,0,0-2.21,4.61v33.42h-5.84Z"/><path class="cls-2" d="M896.82,129.12a4.78,4.78,0,0,1,0,6.82,4.84,4.84,0,0,1-6.81,0,4.78,4.78,0,0,1,0-6.82,4.84,4.84,0,0,1,6.81,0Z"/><path class="cls-2" d="M927.16,126.38l15.38-33.24h6.68l-22.06,46.09-22-46.09h6.68Z"/><path class="cls-2" d="M964.27,103.64v33.1h-5.85V93.14h5.85v1.25q3.78-3.78,11.1-3.78a17,17,0,0,1,17.72,17.27v28.86h-5.8v-28.5a11.21,11.21,0,0,0-3.54-8.33,12,12,0,0,0-16.76,0A12.29,12.29,0,0,0,964.27,103.64Z"/></svg>