<svg id="Layer_1" data-name="Layer 1" xmlns="http://www.w3.org/2000/svg" viewBox="0 0 906.99 233.51"><defs><style>.cls-1{fill:#ffc843;}.cls-2{fill:#00b3e2;}.cls-3{fill:#028c45;}.cls-4{fill:#ef473e;}.cls-5{fill:#c64a9b;}.cls-6{fill:#46b978;}.cls-7{fill:#163056;}.cls-8{fill:#f9ed24;}.cls-9{fill:#022f32;}.cls-10{fill:#da2e2e;}.cls-11{fill:#273a92;}.cls-12{fill:#f36c21;}.cls-13{fill:#d82126;}</style></defs><title>logo-3</title><path class="cls-1" d="M8,71H8V169.9H32.2V108.43A41.08,41.08,0,0,1,8,71"/><path class="cls-2" d="M32.2,71h0v37.41A40.71,40.71,0,0,0,49,112H93.75V87.85H49A16.85,16.85,0,0,1,32.19,71"/><path class="cls-3" d="M93.75,30H49a41,41,0,0,0-16.84,78.43V71A16.85,16.85,0,0,1,49,54.19H93.75V30"/><polyline class="cls-2" points="133.99 82 109.8 82 109.8 169.9 133.99 169.9 133.99 82"/><polyline class="cls-4" points="133.99 30.38 109.8 30.38 109.8 55.91 133.99 55.91 133.99 30.38"/><path class="cls-5" d="M174.18,81.82H150v38.67a38.72,38.72,0,0,1,24.18-35.85V81.82"/><path class="cls-6" d="M188.67,81.82a38.65,38.65,0,0,0-14.49,2.81v35.86a14.49,14.49,0,0,1,29,0v49.42h24.18V120.49a38.72,38.72,0,0,0-38.66-38.67"/><path class="cls-7" d="M174.18,84.63A38.73,38.73,0,0,0,150,120.49V169.9h24.18V84.63"/><path class="cls-5" d="M329.43,30H305.24V86.6a44.08,44.08,0,0,1,24.19,39.29V30m0,95.9a44.08,44.08,0,0,1-24.19,39.29v4.72h24.19v-44"/><path class="cls-8" d="M285.42,81.88a44,44,0,1,0,19.82,83.3V125.89a19.83,19.83,0,1,1-19.82-19.82,19.82,19.82,0,0,1,19.82,19.82V86.6a43.75,43.75,0,0,0-19.82-4.72"/><path class="cls-7" d="M305.24,86.6v78.58a44.08,44.08,0,0,0,24.19-39.29h0A44.08,44.08,0,0,0,305.24,86.6"/><polyline class="cls-2" points="369.58 82 345.39 82 345.39 169.9 369.58 169.9 369.58 82"/><polyline class="cls-4" points="369.58 30.38 345.39 30.38 345.39 55.91 369.58 55.91 369.58 30.38"/><path class="cls-5" d="M409.78,81.82H385.59v38.67a38.73,38.73,0,0,1,24.19-35.85V81.82"/><path class="cls-8" d="M424.26,81.82a38.64,38.64,0,0,0-14.48,2.81v35.86a14.48,14.48,0,0,1,29,0v49.42h24.19V120.49a38.72,38.72,0,0,0-38.67-38.67"/><path class="cls-7" d="M409.78,84.63a38.74,38.74,0,0,0-24.19,35.86V169.9h24.19V84.63"/><path class="cls-4" d="M521,81.88a44,44,0,0,0-34.72,71A27.93,27.93,0,0,1,505,145.71h16a19.82,19.82,0,1,1,19.82-19.82h0V105.55a23.53,23.53,0,0,1,5.75-15.46A43.76,43.76,0,0,0,521,81.88"/><path class="cls-2" d="M576.59,81.88h-12.1a23.46,23.46,0,0,0-16.73,6.93c-.42.41-.81.84-1.19,1.27A44,44,0,0,1,565,125.89h0V106.07h11.58V81.88m-13.4,56.56A44.11,44.11,0,0,1,521,169.9h0a44.11,44.11,0,0,0,42.19-31.46M486.28,152.9A28,28,0,0,0,505,201.71h32a3.81,3.81,0,0,1,0,7.62H508.91v24.18H537a28,28,0,0,0,0-56H505a3.81,3.81,0,0,1,0-7.62h16a44,44,0,0,1-34.72-17"/><path class="cls-9" d="M546.57,90.09a23.53,23.53,0,0,0-5.75,15.46v20.34A19.84,19.84,0,0,1,521,145.71H505a27.93,27.93,0,0,0-18.71,7.19,44,44,0,0,0,34.72,17h0a44,44,0,0,0,25.57-79.81"/><path class="cls-1" d="M757.56,29.84a41.93,41.93,0,0,0-30,12.58,41.89,41.89,0,0,1,12.09,29.49h0a17.88,17.88,0,0,1,35.76,0v97.83h24.19V71.91a42.13,42.13,0,0,0-42.07-42.07"/><path class="cls-5" d="M697.61,29.84a41.83,41.83,0,0,0-24.28,7.74,23.52,23.52,0,0,1,6.4,16.17V71.91a17.88,17.88,0,1,1,35.76,0h0a41.94,41.94,0,0,1,12.1-29.49,42,42,0,0,0-30-12.58"/><path class="cls-10" d="M727.59,42.42A41.89,41.89,0,0,0,715.5,71.91v97.83h24.18V71.91a41.89,41.89,0,0,0-12.09-29.49"/><path class="cls-2" d="M656.08,30.1H644V54.29h11.55V71.91a42.09,42.09,0,0,1,17.78-34.33,23.52,23.52,0,0,0-17.24-7.48"/><path class="cls-11" d="M673.33,37.58a42,42,0,0,0-17.78,34.33v97.83h24.18v-116a23.52,23.52,0,0,0-6.4-16.17"/><path class="cls-12" d="M857.6,81.88a44.06,44.06,0,0,0-44,44c0,24.68,19.92,44,45.36,44,13.12,0,23.65-4.19,35.18-14l-15.68-18.42c-7.14,6.08-12.72,7.76-20,7.76a18.23,18.23,0,0,1-10.2-2.69l-.79.33L823,153a42.9,42.9,0,0,1-8.79-19.83L839,122.91v0a19,19,0,0,1,11.2-15.34,16.77,16.77,0,0,1,6.87-1.44,19.17,19.17,0,0,1,11.72,4l.38.33,24.3-10a44.11,44.11,0,0,1,4.29,7.49,44,44,0,0,0-40.18-26m40.2,26.06,0,.1,0-.1m.09.21,0,0,0,0m.1.21v0m.08.18v0M902.89,120,878.5,130.07,902.89,120"/><path class="cls-5" d="M897.77,107.89l0,0,0,0m.06.14,0,.11,0-.11m.07.15.07.17-.07-.17m.09.21.06.15-.06-.15m.08.18.07.18L902.89,120l-4.75-11.23-.07-.18m-28.89,1.88-14.95,6.17-14.34,5.92-.88.37c-1.2,10.29,4.13,15.93,8.51,19.12l.75.52,26.91-11.12,3.32-1.37c0-.05-2.89-13.71-9.33-19.62"/><path class="cls-13" d="M893.49,100.41l-24.31,10c6.44,5.9,9.31,19.56,9.32,19.62L902.89,120l-4.75-11.23-.07-.18,0,0-.06-.15v0l-.08-.17,0,0,0-.11,0-.1,0,0a44.06,44.06,0,0,0-4.28-7.49M839,122.91l-24.82,10.26A42.9,42.9,0,0,0,823,153l24.5-10.12.79-.33c-.25-.16-.5-.34-.74-.51-4.38-3.2-9.72-8.84-8.52-19.13"/></svg>